<?xml version="1.0" encoding="UTF-8"?>
<svg version="1.1" xmlns="http://www.w3.org/2000/svg" width="1536" height="1024" viewBox="0 0 1536 1024">
<path d="M0 0 C2.12414935 2.12414935 2.79455964 3.57928944 3.93359375 6.328125 C4.32522705 7.25375244 4.71686035 8.17937988 5.12036133 9.13305664 C5.77234497 10.6759436 5.77234497 10.6759436 6.4375 12.25 C17.46370344 37.7605305 30.0560666 62.65654011 44.45507812 86.42724609 C46.47374225 89.78892159 48.4235309 93.18785933 50.37109375 96.59106445 C54.30426788 103.46228067 58.32804664 110.27084491 62.5 117 C63.11439941 117.99773437 63.11439941 117.99773437 63.74121094 119.015625 C65.61139946 122.00040198 67.48563641 124.54696235 70 127 C70.33 127.99 70.66 128.98 71 130 C72.50625422 132.46775642 74.04277484 134.89411472 75.625 137.3125 C76.10791504 138.0537915 76.59083008 138.79508301 77.08837891 139.55883789 C87.63702519 155.67049313 98.6148295 171.46970713 110 187 C110.70286133 187.9593042 110.70286133 187.9593042 111.41992188 188.93798828 C113.22561393 191.40128521 115.03234792 193.8638093 116.84130859 196.32470703 C122.05230177 203.41864834 127.19567237 210.56130415 132.34277344 217.70166016 C134.5201968 220.72143969 136.69995288 223.73953021 138.88012695 226.75732422 C139.95981916 228.25213244 141.03908374 229.74724963 142.11791992 231.24267578 C144.85538966 235.03644505 147.59930977 238.8252507 150.35546875 242.60546875 C173.7569418 274.74235298 196.46369331 309.64600629 201.54296875 349.9453125 C201.69378906 350.62335938 201.84460938 351.30140625 202 352 C202.66 352.33 203.32 352.66 204 353 C203.83701416 354.14146484 203.67402832 355.28292969 203.50610352 356.45898438 C202.95619264 360.87573075 202.87159171 365.21043475 202.90234375 369.65625 C202.9037587 370.44398804 202.90517365 371.23172607 202.90663147 372.04333496 C202.91217388 374.52893064 202.92471515 377.01443211 202.9375 379.5 C202.94252246 381.19791535 202.94708405 382.89583214 202.95117188 384.59375 C202.96212436 388.72920229 202.97934834 392.86458524 203 397 C202.34 397 201.68 397 201 397 C201.06767578 398.43859375 201.06767578 398.43859375 201.13671875 399.90625 C201.13079554 404.62586265 200.00339284 408.95677004 198.8125 413.5 C198.58401367 414.38365234 198.35552734 415.26730469 198.12011719 416.17773438 C191.40322803 441.69636968 180.40998919 464.04620206 164.98510742 485.36791992 C164.49631104 486.04443604 164.00751465 486.72095215 163.50390625 487.41796875 C163.06892822 488.01375732 162.6339502 488.6095459 162.18579102 489.22338867 C160.93743672 491.0047765 160.93743672 491.0047765 159.98022461 493.11450195 C158.57717186 495.81332545 156.37501405 497.09998876 154 499 C150.9687471 502.24105323 148.13104783 505.65351449 145.27734375 509.05078125 C141.18796635 513.84811465 136.83353088 517.96238501 132 522 C131.11441406 522.76183594 130.22882813 523.52367187 129.31640625 524.30859375 C123.27004425 529.45562966 117.09787335 534.20934237 110.54443359 538.6887207 C107.71509409 540.64677889 105.93539282 542.09691077 104 545 C103.01 545 102.02 545 101 545 C98.36709031 546.46699116 95.8111701 547.97905566 93.25 549.5625 C84.65360039 554.76156995 75.85264265 559.04218719 66.62890625 563.0234375 C64.69671127 563.92960501 64.69671127 563.92960501 64.25 566.625 C64.1675 567.40875 64.085 568.1925 64 569 C63.67 568.01 63.34 567.02 63 566 C61.68 566.66 60.36 567.32 59 568 C59 567.01 59 566.02 59 565 C58.01 564.67 57.02 564.34 56 564 C55.58691624 539.83989586 56.17783822 516.42465079 60.71728516 492.59155273 C61.15002435 490.04107166 61.15002435 490.04107166 60.42724609 487.78149414 C60.21575928 486.89965454 60.21575928 486.89965454 60 486 C60.66 485.34 61.32 484.68 62 484 C62.78124465 481.31248094 63.46703882 478.65608294 64.1015625 475.93359375 C64.50969067 474.24432732 64.9180665 472.5551207 65.32666016 470.8659668 C65.53865051 469.97871918 65.75064087 469.09147156 65.96905518 468.17733765 C69.79397798 452.20089098 74.00127247 436.52158071 79.42431641 421.00073242 C80.13825864 418.86648023 80.13825864 418.86648023 80 416 C80.66 416 81.32 416 82 416 C82.12584473 415.12053711 82.25168945 414.24107422 82.38134766 413.33496094 C82.95729551 410.23020655 83.76641628 407.57974056 84.8984375 404.640625 C85.2898291 403.6201709 85.6812207 402.5997168 86.08447266 401.54833984 C86.51034668 400.4598877 86.9362207 399.37143555 87.375 398.25 C88.03894775 396.54191162 88.03894775 396.54191162 88.71630859 394.79931641 C95.28942239 378.01518251 102.01649918 361.2712611 110.34375 345.26953125 C112.05458185 341.89225233 113.54417454 338.49309341 115 335 C114.54109375 334.48050781 114.0821875 333.96101563 113.609375 333.42578125 C110.92091368 330.37019811 108.25907643 327.33104211 105.75 324.125 C103.99973763 321.79062776 103.99973763 321.79062776 101 320 C99.96986723 318.35178756 98.96885372 316.68496298 98 315 C97.34 314.34 96.68 313.68 96 313 C95.06258805 311.63905856 94.14874834 310.26177835 93.25 308.875 C91.15576997 305.7106133 89.03762394 302.57411137 86.8125 299.5 C86.34457031 298.8503125 85.87664062 298.200625 85.39453125 297.53125 C83.97259334 295.71948876 83.97259334 295.71948876 81 295 C81 294.01 81 293.02 81 292 C79.47188212 289.50628008 77.89725898 287.1005899 76.25 284.6875 C69.92261876 275.19642814 64.55096366 265.25478005 59.1953125 255.19335938 C58.2333678 253.42822228 57.20484672 251.69945269 56.15625 249.984375 C55 248 55 248 55 246 C54.01 245.67 53.02 245.34 52 245 C52 244.01 52 243.02 52 242 C51.25109628 240.18443717 50.43184645 238.39760206 49.578125 236.62890625 C49.0529126 235.51547852 48.5277002 234.40205078 47.98657227 233.25488281 C47.56228439 232.35606384 47.56228439 232.35606384 47.12942505 231.43908691 C35.605452 206.84831928 27.25202197 180.95866436 21.53417969 154.42382812 C20.76401346 150.92921647 19.88699958 147.4666222 19 144 C18.67 144 18.34 144 18 144 C18.01740234 142.74896484 18.01740234 142.74896484 18.03515625 141.47265625 C18.08799793 134.88254338 17.88555068 128.53093626 17 122 C14.09399739 120.74335022 12.20395416 120 9 120 C9 178.74 9 237.48 9 298 C10.98 298.66 12.96 299.32 15 300 C17.6875 302 17.6875 302 20 304 C20.99 304.66 21.98 305.32 23 306 C28.4130297 313.96808508 30.4099827 321.46116049 29 331 C26.99986689 338.60284514 22.17423961 345.15841459 15.6875 349.57421875 C8.52291897 353.68678253 2.2671488 354.91274359 -6 354 C-13.99846824 351.78151938 -19.68207399 348.32100786 -25 342 C-26.84188612 339.94729537 -26.84188612 339.94729537 -29 339 C-28.67 338.01 -28.34 337.02 -28 336 C-28.83603774 333.55160376 -29.84430427 331.31139145 -31 329 C-30.53451297 320.55473525 -29.26231519 313.69595875 -24 307 C-23.34 306.01 -22.68 305.02 -22 304 C-21.34 304 -20.68 304 -20 304 C-19.67 303.01 -19.34 302.02 -19 301 C-16.36 299.68 -13.72 298.36 -11 297 C-10.505 209.88 -10.505 209.88 -10 121 C-12.64 121 -15.28 121 -18 121 C-18.14695312 122.90845703 -18.14695312 122.90845703 -18.296875 124.85546875 C-22.5004877 175.80775678 -41.67279394 223.97660562 -67 268 C-67.34804688 268.60730957 -67.69609375 269.21461914 -68.0546875 269.84033203 C-79.75794397 290.04900267 -93.7377867 309.00513651 -109.20581055 326.47265625 C-111.39900019 328.97538195 -112.93590454 330.80771362 -114 334 C-114.66 334.33 -115.32 334.66 -116 335 C-115.6690332 335.69633545 -115.33806641 336.3926709 -114.99707031 337.11010742 C-106.91019233 354.18132317 -99.31299831 371.38118784 -92.25146484 388.90185547 C-91.20861479 391.48355019 -90.1499901 394.05754968 -89.08203125 396.62890625 C-80.30063482 418.0781292 -73.72325552 440.55190609 -67.8125 462.9375 C-67.61609924 463.6792749 -67.41969849 464.4210498 -67.21734619 465.18530273 C-64 477.40038132 -64 477.40038132 -64 481 C-63.34 481.33 -62.68 481.66 -62 482 C-61.65625 483.84350586 -61.65625 483.84350586 -61.5 486.27734375 C-61.18061837 490.22688984 -60.70760117 494.09391808 -60.0625 498.00390625 C-51.31636205 551.6327241 -51.31636205 551.6327241 -58 565 C-77.42086726 562.13716299 -104.17905286 546.82094714 -118 533 C-118.66 533.66 -119.32 534.32 -120 535 C-120.19464844 534.29359375 -120.38929688 533.5871875 -120.58984375 532.859375 C-122.47153747 529.04386307 -125.32200459 526.87451642 -128.5625 524.25 C-140.75139493 514.02662226 -152.60366857 502.88796432 -162 490 C-163.00213683 488.67542754 -164.00479071 487.3512462 -165.0078125 486.02734375 C-175.04315197 472.62329245 -183.55509928 458.48736598 -190 443 C-190.39058594 442.0821875 -190.78117188 441.164375 -191.18359375 440.21875 C-194 433.43598616 -194 433.43598616 -194 430 C-194.99 430.33 -195.98 430.66 -197 431 C-197 430.34 -197 429.68 -197 429 C-196.34 429 -195.68 429 -195 429 C-195.24234375 428.30519531 -195.4846875 427.61039063 -195.734375 426.89453125 C-200.33979364 412.91885699 -204.10312389 397.80024549 -203 383 C-203.66 383 -204.32 383 -205 383 C-205.495 381.515 -205.495 381.515 -206 380 C-205.67 379.67 -205.34 379.34 -205 379 C-203.68695831 371.41353691 -203.8918268 363.66827809 -204 356 C-203.67 356 -203.34 356 -203 356 C-202.83564453 355.05253906 -202.83564453 355.05253906 -202.66796875 354.0859375 C-199.00344997 333.4097096 -193.70834729 313.60111014 -184.34765625 294.73046875 C-183.07403828 292.15000799 -182.15958662 289.75233694 -181.5625 286.9375 C-181 285 -181 285 -179 283 C-178.67 283.33 -178.34 283.66 -178 284 C-177.48953125 283.01773438 -177.48953125 283.01773438 -176.96875 282.015625 C-173.07588355 274.6854403 -168.66769177 267.8553955 -164 261 C-162.72859752 259.06287343 -161.45776691 257.1253714 -160.1875 255.1875 C-156.29141182 249.34336774 -152.16010977 243.6957824 -147.984375 238.05078125 C-144.80487518 233.74916711 -141.68429631 229.40607076 -138.5625 225.0625 C-134.37467002 219.24345071 -130.13066815 213.47296575 -125.8125 207.75 C-121.75417659 202.36982643 -117.76549504 196.95002447 -113.8762207 191.44628906 C-111.47335985 188.04822605 -109.03413096 184.68155224 -106.55859375 181.3359375 C-105.96876709 180.53397949 -105.37894043 179.73202148 -104.77124023 178.90576172 C-103.61677072 177.33772 -102.45639529 175.77400415 -101.28930664 174.21533203 C-98.33442866 170.18632145 -96.53808489 166.79172602 -95 162 C-94.01 161.67 -93.02 161.34 -92 161 C-90.50099094 159.02057527 -89.15760742 157.07134325 -87.83203125 154.98046875 C-87.43352463 154.36665848 -87.03501801 153.75284821 -86.62443542 153.12043762 C-85.3459922 151.14770577 -84.079022 149.16790176 -82.8125 147.1875 C-81.56579334 145.2550441 -80.31678155 143.32409135 -79.06771851 141.39315796 C-78.24478046 140.11935287 -77.42350687 138.84447091 -76.60391235 137.56851196 C-73.33753958 132.48858912 -69.9694074 127.48564721 -66.55151367 122.50610352 C-64.5971689 119.3493216 -63.66066056 116.63363309 -63 113 C-62.34 113.33 -61.68 113.66 -61 114 C-58.84589124 110.42158006 -56.70317435 106.83647012 -54.5625 103.25 C-53.95083984 102.23421875 -53.33917969 101.2184375 -52.70898438 100.171875 C-52.12568359 99.1921875 -51.54238281 98.2125 -50.94140625 97.203125 C-50.40201416 96.30239258 -49.86262207 95.40166016 -49.30688477 94.47363281 C-48.13546973 92.2564131 -47.55155868 90.41888789 -47 88 C-46.01550112 86.98473553 -45.01330735 85.98651316 -44 85 C-41.84147314 81.41931872 -39.94106948 77.70231237 -38 74 C-37.46052734 73.01773438 -37.46052734 73.01773438 -36.91015625 72.015625 C-35.97209856 70.32077667 -35.97209856 70.32077667 -35 68 C-35.33 67.34 -35.66 66.68 -36 66 C-34.68 65.34 -33.36 64.68 -32 64 C-32 62.35 -32 60.7 -32 59 C-31.01 59.33 -30.02 59.66 -29 60 C-28.75378906 59.33097656 -28.50757813 58.66195312 -28.25390625 57.97265625 C-26.71615752 54.32708995 -24.83136597 50.90540957 -22.9375 47.4375 C-18.54980687 39.29264283 -14.74667349 30.94431627 -11.00390625 22.48828125 C-8.82634514 17.57530506 -6.46809427 12.77285877 -4 8 C-3.22713348 6.4593516 -2.45619732 4.91773282 -1.6875 3.375 C-1.130625 2.26125 -0.57375 1.1475 0 0 Z M-204 379 C-203 382 -203 382 -203 382 Z " fill="#FCFCF9" transform="translate(768,183)"/>
<path d="M0 0 C0 59.73 0 119.46 0 181 C-3.465 181.99 -3.465 181.99 -7 183 C-5.36587557 181.29159719 -4.13093906 180.06546953 -2 179 C-1.67 120.92 -1.34 62.84 -1 3 C-3.64 3 -6.28 3 -9 3 C-9.04487549 3.54712646 -9.08975098 4.09425293 -9.13598633 4.65795898 C-9.9512208 14.38087378 -10.84194251 24.06697191 -12.5 33.6875 C-12.61835205 34.39898193 -12.7367041 35.11046387 -12.85864258 35.84350586 C-13.75082797 40.75082797 -13.75082797 40.75082797 -16 43 C-15.87496094 42.00613281 -15.74992188 41.01226562 -15.62109375 39.98828125 C-15.26574105 37.15357841 -14.91757613 34.31818142 -14.57470703 31.48193359 C-14.16423711 28.09272089 -13.74739265 24.7044439 -13.32543945 21.31665039 C-13.14908413 19.88861438 -12.97561502 18.46021918 -12.80493164 17.03149414 C-12.55582169 14.95098672 -12.29651716 12.87196808 -12.03515625 10.79296875 C-11.8844165 9.5608667 -11.73367676 8.32876465 -11.57836914 7.05932617 C-11 4 -11 4 -9 1 C-5.83690118 -0.1997961 -3.53257222 0 0 0 Z " fill="#B8B7B6" transform="translate(759,301)"/>
<path d="M0 0 C2.17730803 2.17730803 2.88993258 3.78644542 4.07421875 6.609375 C4.48768555 7.5780249 4.90115234 8.5466748 5.32714844 9.54467773 C5.77606445 10.60243408 6.22498047 11.66019043 6.6875 12.75 C11.76354599 24.55888125 17.40620313 36.01104842 23.3112793 47.42285156 C23.63072006 48.04730667 23.95016083 48.67176178 24.27928162 49.31513977 C25.15059947 51.01841542 26.0305926 52.71724516 26.91113281 54.41577148 C27.27045898 55.26856689 27.62978516 56.1213623 28 57 C27.67 57.66 27.34 58.32 27 59 C21.38131403 48.58704022 15.97569947 38.07833205 10.81381226 27.43154907 C9.94749856 25.64561238 9.07595138 23.8622174 8.2043457 22.07885742 C7.67156006 20.9726001 7.13877441 19.86634277 6.58984375 18.7265625 C6.11409912 17.74252441 5.63835449 16.75848633 5.14819336 15.74462891 C4.05954586 13.14233776 3.43857331 10.77836984 3 8 C1.02 8 -0.96 8 -3 8 C-2.37240135 5.07120629 -1.41377341 2.63904371 0 0 Z " fill="#B9B8B7" transform="translate(768,183)"/>
<path d="M0 0 C1.32 0.33 2.64 0.66 4 1 C4 1.99 4 2.98 4 4 C1.6696049 5.61832993 -0.65977446 6.84878865 -3.25 8 C-5.35137474 8.94279946 -5.35137474 8.94279946 -6 12 C-6.33 11.34 -6.66 10.68 -7 10 C-6.21654285 8.82780457 -5.42297164 7.66236332 -4.625 6.5 C-4.18414063 5.8503125 -3.74328125 5.200625 -3.2890625 4.53125 C-2.86367188 4.0259375 -2.43828125 3.520625 -2 3 C-1.34 3 -0.68 3 0 3 C0 2.01 0 1.02 0 0 Z " fill="#D2D3D1" transform="translate(748,484)"/>
<path d="M0 0 C2 2 2 2 2.125 5.125 C2.08375 6.07375 2.0425 7.0225 2 8 C0.35 8 -1.3 8 -3 8 C-2.37240135 5.07120629 -1.41377341 2.63904371 0 0 Z " fill="#D6D5D4" transform="translate(768,183)"/>
<path d="M0 0 C0.68359375 1.640625 0.68359375 1.640625 1 4 C-0.21484375 6.796875 -0.21484375 6.796875 -1.9375 9.75 C-2.50339844 10.73484375 -3.06929687 11.7196875 -3.65234375 12.734375 C-4.09707031 13.48203125 -4.54179688 14.2296875 -5 15 C-6 12 -6 12 -4.78515625 9.08203125 C-4.21667969 8.00308594 -3.64820313 6.92414063 -3.0625 5.8125 C-2.49660156 4.72582031 -1.93070313 3.63914063 -1.34765625 2.51953125 C-0.90292969 1.68808594 -0.45820312 0.85664063 0 0 Z " fill="#BEBEBB" transform="translate(761,198)"/>
</svg>
